<svg xmlns="http://www.w3.org/2000/svg" xmlns:xlink="http://www.w3.org/1999/xlink" version="1.1" x="0px" y="0px" viewBox="0 0 100 125" enable-background="new 0 0 100 100" xml:space="preserve"><polygon points="-4,46.356 -4,46.356 -4.125,46.356 -4.125,46.356 -4.125,46.356 -4.125,46.356 -4,46.356 -4,46.356 "/><polygon points="48.205,51.75 48.205,51.75 48.051,51.75 48.051,51.75 48.051,51.75 48.051,51.75 48.205,51.75 48.205,51.75 "/><g><path d="M53.682,19.042c0-7.559-6.149-13.708-13.708-13.708s-13.708,6.149-13.708,13.708c0,5.442,3.194,10.139,7.8,12.351v-2.817   c-3.189-1.983-5.324-5.509-5.324-9.534c0-6.193,5.038-11.231,11.231-11.231c6.193,0,11.231,5.038,11.231,11.231   c0,4.05-2.163,7.596-5.386,9.572v2.809C50.458,29.223,53.682,24.508,53.682,19.042z" fill="#93c5fd"/></g><path d="M72.371,40.435c-2.839,0-4.677,2.488-4.677,5.558v6.78c-0.221-0.051-0.452-0.102-0.68-0.152V42.405  c0-3.07-2.303-5.557-5.146-5.557c-2.84,0-5.139,2.487-5.139,5.557v8.205c-0.226-0.042-0.456-0.082-0.681-0.121V39.286  c0-3.07-2.3-5.558-5.143-5.558c-2.84,0-5.14,2.488-5.14,5.558v10.243c-0.237,0.043-0.46,0.095-0.68,0.151V18.127  c0-3.07-2.3-5.558-5.144-5.558c-2.839,0-5.142,2.488-5.142,5.558v41.636l0,0l-0.4-0.083l-0.349-2.399  c-1.819-8.321-11.417-9.805-10.075-4.749c1.267,4.778,3.535,16.616,5.65,24.486c0,0,4.967,10.025,5.702,11.379  s1.415,6.102,6.14,6.102h25.09c3.334,0,4.555-2.62,5.352-6.191l4.313-20.887l0.824-21.429C77.05,42.923,75.214,40.435,72.371,40.435  z" fill="#93c5fd"/> </svg>
